<!--<svg xmlns="http://www.w3.org/2000/svg" width="57" height="66" viewBox="471.5 467 57 66" enable-background="new 471.5 467 57 66"><path opacity=".2" fill="#303030" d="M528.5 504.965c0 16.634-13.123 27.615-28.24 27.615-10.29 0-19.894-5.523-24.978-14.167l.605-.027c1.313 1.192 3.39 2.58 7.404 2.515 4.77-.064 5.645-.875 9.855-2.756 22.716-10.17 26.925-19.457 27.736-21.59s2.013-5.587.756-9.415c-.242-.737-.42-1.333-.54-1.808-3.018-3.372-6.017-5.225-6.92-5.784-.14-.093-.29-.177-.43-.26l.44.26c2.01 1.247 14.314 8.782 14.314 25.417z"/><path fill="#fff" d="M509.09 518.507c1.006 0 2.077.065 2.83.568.756.503 1.193 1.63 1.445 2.263.25.634 0 1.006-.503 1.258-.438.25-.503.12-.94-.69-.44-.81-.82-1.63-3.01-1.63s-2.887.755-3.948 1.63c-1.062.876-1.443 1.193-1.825.69s-.253-1.006.437-1.63 1.825-1.63 2.888-2.077c1.06-.45 1.62-.383 2.625-.383zm-10.413 7.152c1.257 1.005 3.14 1.825 7.153 1.825 4.015 0 6.836-1.137 8.094-2.077.568-.438.82-.065.875.187.056.25.186.624-.252 1.07-.316.317-3.194 2.33-6.594 2.636-3.4.31-7.964.504-10.73-2.01-.438-.44-.316-1.07 0-1.323.317-.25.568-.438.94-.438.374.008.317.008.513.13z"/><path opacity=".2" fill="#aaa" d="M520.89 496.545c-.81 2.133-5.02 11.42-27.735 21.59-4.21 1.88-5.085 2.69-9.854 2.756-4.013.066-6.09-1.32-7.403-2.514l-.605.028h-.01c-2.393-4.042-3.78-8.783-3.78-13.952 0-7.852 2.97-13.654 6.287-17.687.11-.13.213-.26.325-.382 2.683-3.148 5.55-5.17 7.218-6.203.038-.028.075-.047.112-.065.42-.25.754-.447.987-.568 2.757-1.51 4.77-2.263 7.963-4.77.12-.092.242-.186.354-.288l.008-.01c.875-.754 1.64-1.76 2.18-3.4v-.008c.325-.97.567-2.16.716-3.65l.02.018c2.253 2.69 4.954 5.886 6.89 7.144.69.447 1.38.848 2.068 1.202l.3.15c2.243 1.126 4.507 1.945 6.807 3.333l.428.26c.903.56 3.902 2.412 6.92 5.784.12.475.298 1.07.54 1.807 1.274 3.837.073 7.292-.737 9.425z"/><path opacity=".5" fill="#333" d="M514.176 479.538c-3.26-2.077-6.464-2.887-9.603-4.955-1.938-1.267-4.64-4.47-6.893-7.162-.438 4.332-1.686 6.148-3.26 7.35-3.195 2.515-5.207 3.26-7.963 4.77-2.338 1.256-14.958 8.726-14.958 24.913 0 5.17 1.387 9.91 3.77 13.96 5.077 8.635 14.68 14.158 24.97 14.158 15.126 0 28.24-10.98 28.24-27.614 0-9.127-3.707-15.526-7.386-19.633-3.016-3.382-6.015-5.217-6.918-5.785zm7.627 7.34c4.117 5.15 6.213 11.23 6.213 18.077 0 3.968-.755 7.712-2.245 11.148-1.414 3.25-3.444 6.13-6.053 8.56-5.15 4.806-12.062 7.45-19.475 7.45-3.67 0-7.265-.698-10.692-2.086-3.372-1.36-6.398-3.297-9.016-5.774-5.532-5.225-8.57-12.257-8.57-19.8 0-6.716 2.18-12.695 6.483-17.753 3.288-3.865 6.836-6.007 8.196-6.743.67-.363 1.285-.69 1.89-.997 1.892-.97 3.68-1.89 6.14-3.818 1.312-.997 2.71-2.58 3.305-6.585 2.077 2.468 4.48 5.234 6.314 6.426 1.63 1.08 3.307 1.835 4.918 2.562 1.527.69 3.11 1.406 4.676 2.403l.056.037c4.62 2.84 7.06 5.896 7.86 6.892z"/><path opacity=".5" fill="#fff" d="M497.98 468.678c.874 2.58.753 3.893.753 4.452 0 .56-.307 2.077-1.313 2.832-.438.317-.568.568-.568.624 0 .25.568.438.568 1.006 0 .69-.317 2.077-3.642 5.393-3.325 3.316-8.103 6.278-11.8 8.103-3.698 1.826-5.468 1.686-5.97.81s.185-2.83 2.514-5.392l9.667-6.278 9.164-6.398.503-2.44"/><path fill="#fff" d="M497.98 468.613c-.57 4.145-1.826 5.393-3.512 6.715-2.83 2.133-5.588 3.446-6.212 3.763-1.63.82-7.535 4.08-10.608 8.784-.94 1.444 0 2.012.186 2.133.187.12 2.33.372 6.9-2.385 4.574-2.757 6.595-4.387 9.175-7.078 1.377-1.444 1.573-2.263 1.573-2.636 0-.438-.316-.624-.82-.754-.25-.065-.316-.187 0-.373.317-.186 1.622-.82 1.938-1.07.318-.25 1.827-1.257 1.882-2.887.065-1.63-.056-2.766-.503-4.21zm-14.112 45.628c.065-4.898 4.648-9.472 10.422-9.536 7.348-.065 12.424 7.283 16.13 7.208 3.14-.064 9.166-6.212 12.118-6.212 3.14 0 4.014 3.26 4.014 5.206 0 1.938-.623 5.458-2.133 7.656-1.51 2.198-2.44 3.008-4.2 2.888-2.264-.187-6.78-7.21-9.67-7.35-3.64-.12-11.547 7.6-17.75 7.6-3.763 0-4.9-.567-6.147-1.378-1.92-1.312-2.85-3.315-2.785-6.08z"/></svg>-->
<svg width="299" height="50" viewBox="0 0 299 50" fill="none" xmlns="http://www.w3.org/2000/svg">
<path d="M65.8091 32.6142V21.0089H70.4617C71.8631 21.0089 73.769 21.5184 73.769 24.0659C73.769 25.5378 73.0403 26.3304 72.4237 26.5568C73.3766 26.7833 74.2175 27.7456 74.2175 29.3308C74.2175 32.0481 72.4237 32.6142 70.5739 32.6142H65.8091ZM67.2666 22.4242V26.0473H70.2936C71.4147 26.0473 72.1995 25.7076 72.1995 24.1791C72.1995 22.7072 71.4147 22.4242 70.2936 22.4242H67.2666ZM70.4057 31.2555C71.3026 31.2555 72.5919 31.1423 72.5919 29.3308C72.5919 27.5192 71.4147 27.3494 70.4617 27.3494H67.2666V31.2555H70.4057Z" fill="#3B5676"/>
<path d="M76.0113 28.425V21.0089H77.5247V28.425C77.5247 30.0667 78.0292 31.4254 80.6639 31.4254C83.2424 31.4254 83.803 30.0667 83.803 28.425V21.0089H85.3165V28.425C85.3165 30.9159 84.1954 32.784 80.6639 32.784C77.1324 32.8407 76.0113 30.9159 76.0113 28.425Z" fill="#3B5676"/>
<path d="M94.6777 29.3308C94.6777 28.0287 94.005 27.4626 91.7628 27.2361C89.6888 27.0663 87.7268 26.5568 87.7268 24.2357C87.7268 21.9147 89.5767 20.8391 91.7068 20.8391C94.6217 20.8391 95.8549 22.1411 96.1352 24.0093L94.6217 24.1791C94.3974 22.7639 93.5566 22.1977 91.7068 22.1977C90.7538 22.1977 89.1843 22.5374 89.1843 24.1791C89.1843 25.1981 89.6888 25.651 91.8189 25.8775C94.5656 26.1605 96.1352 26.67 96.1912 29.2741C96.1912 31.765 94.0051 32.784 91.8189 32.784C88.7919 32.784 87.6147 31.482 87.3344 29.5572L88.8479 29.3874C89.0722 30.8027 89.9691 31.4254 91.8189 31.4254C93.0521 31.4254 94.6777 30.9159 94.6777 29.3308Z" fill="#3B5676"/>
<path d="M99.8909 32.6142H98.4335V21.0089H99.8909V32.6142Z" fill="#3B5676"/>
<path d="M108.86 28.0287L110.149 30.0101L110.093 26.5002V21.0089H111.606V32.6142H110.261L105.552 25.5944L104.263 23.613L104.319 27.1229V32.6142H102.806V21.0089H104.151L108.86 28.0287Z" fill="#3B5676"/>
<path d="M122.145 21.0089V22.3676H115.699V26.0473H121.528V27.406H115.699V31.3122H122.425V32.6708H114.241V21.0089H122.145Z" fill="#3B5676"/>
<path d="M131.506 29.3308C131.506 28.0287 130.834 27.4626 128.591 27.2361C126.517 27.0663 124.555 26.5568 124.555 24.2357C124.555 21.9147 126.405 20.8391 128.535 20.8391C131.45 20.8391 132.683 22.1411 132.964 24.0093L131.45 24.1791C131.226 22.7639 130.385 22.1977 128.535 22.1977C127.582 22.1977 126.013 22.5374 126.013 24.1791C126.013 25.1981 126.517 25.651 128.647 25.8775C131.394 26.1605 132.964 26.67 133.02 29.2741C133.02 31.765 130.834 32.784 128.647 32.784C125.62 32.784 124.443 31.482 124.163 29.5572L125.676 29.3874C125.901 30.8027 126.798 31.4254 128.647 31.4254C129.937 31.4254 131.506 30.9159 131.506 29.3308Z" fill="#3B5676"/>
<path d="M142.213 29.3308C142.213 28.0287 141.54 27.4626 139.298 27.2361C137.224 27.0663 135.262 26.5568 135.262 24.2357C135.262 21.9147 137.112 20.8391 139.242 20.8391C142.157 20.8391 143.39 22.1411 143.67 24.0093L142.157 24.1791C141.933 22.7639 141.092 22.1977 139.242 22.1977C138.289 22.1977 136.719 22.5374 136.719 24.1791C136.719 25.1981 137.224 25.651 139.354 25.8775C142.101 26.1605 143.67 26.67 143.726 29.2741C143.726 31.765 141.54 32.784 139.354 32.784C136.327 32.784 135.15 31.482 134.87 29.5572L136.383 29.3874C136.607 30.8027 137.504 31.4254 139.354 31.4254C140.643 31.4254 142.213 30.9159 142.213 29.3308Z" fill="#3B5676"/>
<path d="M149.5 32.6142V21.0089H154.097C155.946 21.0089 157.852 21.575 157.852 24.349C157.852 26.5002 156.675 27.3494 155.33 27.6324L158.357 32.6142H156.563L153.76 27.7456H151.014V32.6142H149.5ZM154.209 26.387C155.106 26.387 156.283 26.2738 156.283 24.4056C156.283 22.5374 155.106 22.4242 154.209 22.4242H150.957V26.4436H154.209V26.387Z" fill="#3B5676"/>
<path d="M168.11 21.0089V22.3676H161.664V26.0473H167.494V27.406H161.664V31.3122H168.391V32.6708H160.207V21.0089H168.11Z" fill="#3B5676"/>
<path d="M175.173 20.8391C178.032 20.8391 179.378 22.1977 179.658 24.1225L178.144 24.2924C177.92 22.8771 177.023 22.1977 175.173 22.1977C172.427 22.1977 171.698 24.349 171.698 26.8399C171.698 29.3308 172.427 31.4254 175.173 31.482C176.463 31.482 177.528 31.1989 178.2 30.746V27.8023H175.734V26.5002H179.658V31.6518C178.144 32.6142 176.855 32.8407 175.173 32.8407C171.698 32.784 170.184 30.463 170.184 26.8399C170.184 23.2167 171.698 20.8391 175.173 20.8391Z" fill="#3B5676"/>
<path d="M183.862 32.6142H182.405V21.0089H183.862V32.6142Z" fill="#3B5676"/>
<path d="M186.385 26.8399C186.385 23.2167 187.898 20.8391 191.373 20.8391C194.905 20.8391 196.362 23.2167 196.362 26.8399C196.362 30.463 194.849 32.8407 191.373 32.8407C187.898 32.8407 186.385 30.463 186.385 26.8399ZM187.954 26.8399C187.954 29.3308 188.627 31.482 191.43 31.482C194.232 31.482 194.905 29.3308 194.905 26.8399C194.905 24.349 194.232 22.1977 191.43 22.1977C188.627 22.1977 187.954 24.349 187.954 26.8399Z" fill="#3B5676"/>
<path d="M204.715 28.0287L206.004 30.0101L205.948 26.5002V21.0089H207.461V32.6142H206.116L201.407 25.5944L200.118 23.613L200.174 27.1229V32.6142H198.661V21.0089H200.006L204.715 28.0287Z" fill="#3B5676"/>
<path d="M218.504 20.7258C221.363 20.7258 222.708 22.0845 222.989 24.0093L221.475 24.1791C221.251 22.7639 220.298 22.0845 218.504 22.0845C215.758 22.0845 215.029 24.2357 215.029 26.7266C215.029 29.2175 215.758 31.3122 218.504 31.3688C219.794 31.3688 220.859 31.0857 221.531 30.6328V27.689H219.065V26.387H222.989V31.5386C221.475 32.501 220.186 32.7274 218.504 32.7274C215.029 32.6708 213.515 30.3498 213.515 26.7266C213.459 23.1035 214.973 20.7258 218.504 20.7258Z" fill="#3B5676"/>
<path d="M225.063 26.7266C225.063 23.1035 226.576 20.7258 230.052 20.7258C233.583 20.7258 235.041 23.1035 235.041 26.7266C235.041 30.3498 233.527 32.7274 230.052 32.7274C226.576 32.7274 225.063 30.3498 225.063 26.7266ZM226.632 26.7266C226.632 29.2175 227.305 31.3688 230.108 31.3688C232.911 31.3688 233.583 29.2175 233.583 26.7266C233.583 24.2357 232.911 22.0845 230.108 22.0845C227.305 22.0845 226.632 24.2357 226.632 26.7266ZM229.435 19.5936H227.81V17.9519H229.435V19.5936ZM232.406 19.5936H230.78V17.9519H232.406V19.5936Z" fill="#3B5676"/>
<path d="M241.039 32.5576H239.581V22.311H236.05V20.9523H244.626V22.311H241.039V32.5576Z" fill="#3B5676"/>
<path d="M254.716 20.9523V22.311H248.27V25.9341H254.1V27.2928H248.27V31.1423H254.996V32.501H246.812V20.9523H254.716Z" fill="#3B5676"/>
<path d="M257.183 32.5576V20.9523H261.835C263.237 20.9523 265.142 21.4618 265.142 24.0093C265.142 25.4812 264.414 26.2738 263.797 26.5002C264.75 26.7266 265.591 27.689 265.591 29.2741C265.591 31.9915 263.797 32.5576 261.947 32.5576H257.183ZM258.64 22.311V25.9341H261.667C262.788 25.9341 263.573 25.5944 263.573 24.0659C263.573 22.594 262.788 22.311 261.667 22.311H258.64ZM261.835 31.1423C262.676 31.1423 264.021 31.0291 264.021 29.2175C264.021 27.406 262.844 27.2361 261.891 27.2361H258.696V31.1423H261.835Z" fill="#3B5676"/>
<path d="M267.104 26.7266C267.104 23.1035 268.618 20.7258 272.093 20.7258C275.625 20.7258 277.082 23.1035 277.082 26.7266C277.082 30.3498 275.569 32.7274 272.093 32.7274C268.562 32.7274 267.104 30.3498 267.104 26.7266ZM268.618 26.7266C268.618 29.2175 269.291 31.3688 272.093 31.3688C274.896 31.3688 275.569 29.2175 275.569 26.7266C275.569 24.2357 274.896 22.0845 272.093 22.0845C269.291 22.0845 268.618 24.2357 268.618 26.7266Z" fill="#3B5676"/>
<path d="M280.838 32.5576H279.381V20.9523H283.977C285.827 20.9523 287.733 21.5184 287.733 24.2924C287.733 26.4436 286.612 27.2928 285.21 27.5758L288.237 32.5576H286.444L283.641 27.689H280.838V32.5576ZM284.089 26.3304C284.986 26.3304 286.163 26.2171 286.163 24.349C286.163 22.4808 284.986 22.3676 284.089 22.3676H280.838V26.387H284.089V26.3304Z" fill="#3B5676"/>
<path d="M294.516 20.7258C297.374 20.7258 298.72 22.0845 299 24.0093L297.486 24.1791C297.262 22.7639 296.365 22.0845 294.516 22.0845C291.769 22.0845 291.04 24.2357 291.04 26.7266C291.04 29.2175 291.769 31.3122 294.516 31.3688C295.805 31.3688 296.87 31.0857 297.543 30.6328V27.689H295.076V26.387H299V31.5386C297.487 32.501 296.197 32.7274 294.516 32.7274C291.04 32.6708 289.527 30.3498 289.527 26.7266C289.471 23.1035 290.984 20.7258 294.516 20.7258Z" fill="#3B5676"/>
<path d="M42.0416 12.2342L31.9516 22.4242L37.1087 27.6324C37.1087 27.6324 32.8485 31.9349 32.4561 32.3312L42.2658 42.691C43.9475 40.9927 57.1766 27.689 57.1766 27.689L42.0416 12.2342Z" fill="#3B5676"/>
<path d="M27.1309 14.6118C26.29 14.442 25.7295 14.3288 24.8326 14.3288L24.3281 0.00612885C26.5703 -0.0504824 28.8686 0.289185 31.1668 0.855298L27.1309 14.6118Z" fill="#3B5676"/>
<path d="M23.4872 14.3854C22.6464 14.4986 22.0859 14.6118 21.245 14.8949L15.8637 1.64786C17.9938 0.855298 20.236 0.289185 22.5904 0.119351L23.4872 14.3854Z" fill="#3B5676"/>
<path d="M19.9558 15.461C19.227 15.8573 18.7225 16.1403 18.0499 16.7064L8.52044 6.12014C10.2021 4.64825 12.164 3.34619 14.2942 2.3838L19.9558 15.461Z" fill="#3B5676"/>
<path d="M16.9848 17.7255C16.4243 18.3482 16.0319 18.8011 15.5834 19.5936L3.08305 12.8569C4.20416 10.8755 5.60555 9.00732 7.23116 7.30898L16.9848 17.7255Z" fill="#3B5676"/>
<path d="M15.0229 20.8391C14.6865 21.6316 14.5184 22.1411 14.3502 23.0469L0.336337 21.1221C0.67267 18.8577 1.40139 16.6498 2.35433 14.4986L15.0229 20.8391Z" fill="#3B5676"/>
<path d="M14.182 24.4056C14.126 25.2547 14.182 25.8209 14.2942 26.7266L0.448444 29.727C0 27.5192 -0.112111 25.1415 0.112111 22.7639L14.182 24.4056Z" fill="#3B5676"/>
<path d="M14.6305 28.0853C14.9108 28.8779 15.0789 29.444 15.5274 30.2365L3.5315 37.8791C2.35433 35.9543 1.45744 33.7464 0.840832 31.482L14.6305 28.0853Z" fill="#3B5676"/>
<path d="M16.2561 31.4254C16.7606 32.1047 17.153 32.5576 17.8256 33.1237L9.13704 44.446C7.39932 43.0307 5.82977 41.2757 4.48444 39.351L16.2561 31.4254Z" fill="#3B5676"/>
<path d="M18.9467 33.9729C19.6755 34.4258 20.18 34.7088 20.9647 35.0485L16.6485 48.6918C14.5184 47.9559 12.4443 46.8803 10.5384 45.5216L18.9467 33.9729Z" fill="#3B5676"/>
<path d="M22.3661 35.3882C23.207 35.558 23.7675 35.6712 24.6644 35.6712L25.225 49.9939C22.9827 50.0505 20.6845 49.7108 18.3862 49.1447L22.3661 35.3882Z" fill="#3B5676"/>
<path d="M26.0097 35.6146C26.8506 35.5014 27.4111 35.3882 28.252 35.1051L33.5772 48.3521C31.4471 49.1447 29.2049 49.7108 26.8506 49.8806L26.0097 35.6146Z" fill="#3B5676"/>
<path d="M29.5413 34.539C30.27 34.1427 30.7745 33.8597 31.4471 33.2935L40.9766 43.8798C39.2949 45.3517 37.333 46.6538 35.2029 47.6162L29.5413 34.539Z" fill="#3B5676"/>
</svg>

