<svg width="192" height="105" viewBox="0 0 192 105" fill="none" xmlns="http://www.w3.org/2000/svg">
<path d="M117.095 83.7727C116.293 86.224 115.521 88.4083 114.988 89.6526L114.975 89.6438C114.933 89.6129 114.893 89.5798 114.848 89.5445L114.808 89.5136C114.759 89.4783 114.71 89.4386 114.659 89.3989L114.634 89.379C114.59 89.346 114.545 89.3084 114.499 89.2709L114.452 89.2334C114.398 89.1893 114.343 89.1452 114.291 89.0988L114.26 89.0746C114.214 89.0327 114.162 88.9929 114.116 88.951L114.071 88.9135C114.015 88.865 113.957 88.8142 113.9 88.7635L113.864 88.7326L113.71 88.5958C113.695 88.5826 113.679 88.5693 113.663 88.5539C113.603 88.4987 113.541 88.4436 113.481 88.3862L113.47 88.3752C113.888 87.8655 114.274 87.3249 114.621 86.7645L114.639 86.7358C114.663 86.6939 114.686 86.652 114.712 86.6101C114.748 86.5505 114.781 86.4931 114.815 86.4358C115.414 85.3701 115.654 84.5008 115.719 83.8257V83.8102C115.719 83.797 115.719 83.786 115.719 83.7727L115.726 83.7043C115.726 83.6845 115.726 83.6624 115.726 83.6425L115.73 83.5742C115.73 83.5278 115.73 83.4837 115.73 83.4374C115.73 81.5068 114.877 80.3683 114.16 79.7528C113.352 79.0622 112.325 78.6805 111.261 78.6672H111.243C111.212 78.6672 111.181 78.6672 111.149 78.6672C111.12 78.6672 111.087 78.6672 111.056 78.6717L110.953 78.6783C110.92 78.6783 110.889 78.6827 110.858 78.6849C110.826 78.6893 110.791 78.6937 110.757 78.6981C110.724 78.7025 110.693 78.7047 110.662 78.7114C110.628 78.7158 110.595 78.7224 110.561 78.7268L110.466 78.7423L110.368 78.7621C110.337 78.7687 110.303 78.7753 110.27 78.7798C110.239 78.7886 110.207 78.7952 110.174 78.804L110.078 78.8283C110.047 78.8371 110.016 78.846 109.985 78.857L109.887 78.8857C109.856 78.8967 109.827 78.9055 109.798 78.9166L109.7 78.9519C109.668 78.9651 109.642 78.9739 109.613 78.985C109.579 78.9982 109.548 79.0092 109.515 79.0247L109.428 79.0644L109.334 79.1063C109.303 79.1217 109.279 79.135 109.25 79.1504C109.223 79.1659 109.187 79.1791 109.159 79.1968C109.127 79.2122 109.103 79.2277 109.076 79.2431L108.985 79.2916C108.956 79.3093 108.934 79.3269 108.907 79.3402C108.876 79.3578 108.847 79.3777 108.818 79.3953C108.789 79.413 108.767 79.4306 108.74 79.4483C108.713 79.4637 108.682 79.4858 108.655 79.5057C108.629 79.5233 108.597 79.5498 108.568 79.5718C108.544 79.5873 108.522 79.6049 108.495 79.6226C108.444 79.6645 108.393 79.7042 108.344 79.7484C107.626 80.3639 106.771 81.5024 106.771 83.4352C106.771 83.4793 106.771 83.5256 106.776 83.5719C106.776 83.594 106.776 83.6183 106.776 83.6381L106.78 83.7021L106.787 83.7683C106.787 83.7816 106.787 83.7926 106.787 83.808V83.8235C106.856 84.5361 107.121 85.4628 107.793 86.6123L107.863 86.7292L107.885 86.7667C108.234 87.3294 108.617 87.8633 109.038 88.3752L109.029 88.384C108.965 88.4413 108.905 88.4987 108.842 88.5517L108.802 88.587C108.747 88.6355 108.693 88.6863 108.637 88.7326L108.611 88.7546L108.433 88.9091L108.395 88.9444L108.237 89.0768C108.176 89.1275 108.112 89.1827 108.05 89.2312L108.012 89.2621L107.867 89.379L107.851 89.3923C107.8 89.4342 107.747 89.4717 107.7 89.5114L107.662 89.5401C107.618 89.5732 107.577 89.6063 107.535 89.635L107.52 89.6482C106.985 88.4038 106.215 86.2196 105.411 83.7683H102.015C102.222 84.4192 102.442 85.0965 102.667 85.7717C103.309 87.6978 103.863 89.24 104.317 90.3542C104.607 91.0669 104.856 91.6053 105.077 92.0046C105.286 92.3885 105.847 93.399 106.978 93.399C107.517 93.399 108.143 93.1982 109.446 92.223C109.539 92.1524 109.633 92.0818 109.729 92.0068L109.807 91.9472C109.889 91.881 109.974 91.8149 110.056 91.7487L110.101 91.7156C110.196 91.6383 110.294 91.5567 110.39 91.4751L110.463 91.4133C110.544 91.3449 110.624 91.2765 110.704 91.2059L110.766 91.153C110.862 91.0691 110.96 90.9809 111.056 90.8926L111.118 90.8352L111.252 90.7139C111.296 90.7536 111.339 90.7933 111.385 90.8352L111.45 90.8926C111.546 90.9809 111.641 91.0647 111.737 91.1507L111.806 91.2103L112.042 91.4111L112.12 91.4773C112.216 91.5589 112.312 91.6383 112.408 91.7156L112.452 91.7531C112.534 91.8193 112.617 91.8855 112.697 91.9494L112.775 92.0112C112.871 92.0862 112.964 92.1568 113.058 92.2274C114.363 93.2004 114.991 93.4012 115.527 93.4012C116.656 93.4012 117.218 92.3885 117.429 92.0068C117.652 91.6075 117.899 91.0691 118.186 90.3565C118.638 89.2423 119.193 87.7022 119.836 85.7717C120.059 85.1076 120.277 84.439 120.491 83.7683H117.095V83.7727ZM112.497 83.5212V83.5433C112.492 83.5719 112.488 83.5984 112.483 83.6271V83.6381C112.479 83.6734 112.472 83.7065 112.465 83.7396L112.459 83.7683V83.7749C112.452 83.8014 112.445 83.8301 112.439 83.861C112.439 83.8676 112.434 83.8742 112.432 83.8764C112.421 83.9161 112.412 83.9536 112.399 83.9934L112.387 84.0198C112.376 84.0551 112.365 84.0882 112.352 84.1257L112.341 84.1522C112.325 84.1941 112.307 84.2361 112.29 84.2824L112.276 84.3089C112.261 84.3486 112.243 84.3861 112.225 84.4258L112.209 84.4589C112.187 84.5074 112.163 84.556 112.138 84.6045L112.125 84.6288L112.056 84.7612L112.036 84.7987C112.007 84.8516 111.978 84.9068 111.947 84.9619L111.935 84.9774C111.906 85.0281 111.875 85.0811 111.842 85.1318C111.835 85.1473 111.826 85.1583 111.817 85.1738C111.746 85.2885 111.668 85.4076 111.584 85.5312L111.552 85.5775C111.512 85.6349 111.472 85.6922 111.428 85.7518L111.417 85.7673C111.37 85.8312 111.323 85.8974 111.274 85.9636C111.267 85.9702 111.263 85.9769 111.258 85.9835C111.252 85.9747 111.247 85.968 111.243 85.9636C111.194 85.8974 111.145 85.8312 111.1 85.7673L111.089 85.7518C111.047 85.6945 111.007 85.6349 110.965 85.5775L110.933 85.5312C110.849 85.4076 110.771 85.2885 110.7 85.1738L110.675 85.1318C110.642 85.0811 110.613 85.0281 110.582 84.9774L110.573 84.9619C110.539 84.9068 110.51 84.8538 110.481 84.7987L110.461 84.7612C110.439 84.717 110.414 84.6729 110.392 84.6288L110.379 84.6045C110.33 84.5074 110.283 84.4081 110.241 84.3089L110.227 84.2824C110.192 84.1963 110.158 84.1103 110.129 84.022L110.118 83.9956C110.105 83.9559 110.096 83.9183 110.085 83.8808L110.08 83.8632C110.072 83.8345 110.065 83.8058 110.058 83.7771V83.7705L110.052 83.7418C110.045 83.7087 110.038 83.6756 110.034 83.6403V83.6293C110.029 83.6028 110.027 83.5742 110.023 83.5455C110.023 83.5389 110.023 83.53 110.023 83.5234C110.023 83.4947 110.023 83.4682 110.023 83.4396C110.023 83.3932 110.023 83.3469 110.023 83.3028C110.023 83.2873 110.023 83.2741 110.027 83.2564C110.027 83.23 110.027 83.2013 110.031 83.1748C110.031 83.1594 110.036 83.1417 110.038 83.1263C110.043 83.1042 110.043 83.0799 110.047 83.0557L110.056 83.0093C110.06 82.9895 110.063 82.9652 110.067 82.9453L110.078 82.899L110.092 82.8439L110.105 82.7975L110.118 82.7446C110.125 82.7269 110.129 82.7181 110.134 82.7004L110.152 82.6541L110.167 82.6144L110.185 82.5681C110.198 82.5438 110.21 82.5173 110.223 82.4908C110.232 82.4776 110.236 82.4688 110.243 82.4555L110.265 82.418C110.272 82.4048 110.281 82.3982 110.285 82.3871L110.308 82.3518C110.308 82.3518 110.323 82.3342 110.33 82.3232L110.354 82.2923L110.377 82.2658L110.401 82.2371L110.426 82.2128L110.452 82.1864L110.477 82.1665L110.504 82.1422C110.504 82.1422 110.519 82.129 110.53 82.1246C110.539 82.118 110.548 82.1091 110.555 82.1047L110.582 82.0871L110.608 82.0694L110.635 82.054L110.662 82.0385L110.688 82.0231L110.715 82.0076L110.742 81.9944L110.769 81.9812L110.795 81.9701L110.82 81.9591L110.847 81.9481L110.871 81.937L110.895 81.9304L110.92 81.9216L110.944 81.915L110.969 81.9084L110.991 81.9017L111.014 81.8973L111.036 81.8929L111.058 81.8885L111.078 81.8841L111.098 81.8797H111.116L111.134 81.8753H111.152H111.339H111.356L111.374 81.8797H111.392L111.412 81.8863L111.432 81.8907L111.454 81.8951L111.474 81.8995L111.499 81.9039L111.521 81.9106L111.546 81.9172L111.57 81.9238L111.595 81.9326L111.617 81.9393L111.644 81.9503L111.67 81.9613L111.695 81.9723L111.722 81.9834L111.748 81.9966L111.775 82.0099L111.802 82.0253L111.829 82.0407L111.855 82.0562L111.88 82.0716L111.909 82.0893L111.933 82.1069C111.933 82.1069 111.951 82.1202 111.96 82.1268L111.987 82.1444L112.013 82.1687L112.038 82.1886L112.065 82.215L112.089 82.2393L112.114 82.268L112.136 82.2945L112.16 82.3254C112.16 82.3254 112.176 82.343 112.183 82.354L112.205 82.3893L112.225 82.4202L112.247 82.4577L112.267 82.493L112.285 82.5328L112.303 82.5703L112.321 82.6166C112.33 82.632 112.334 82.6431 112.339 82.6563L112.354 82.7049C112.359 82.7203 112.365 82.7313 112.37 82.7468L112.385 82.7997C112.39 82.8174 112.396 82.8284 112.399 82.8461C112.403 82.8615 112.41 82.8836 112.414 82.9012L112.425 82.9476L112.436 83.0115C112.436 83.027 112.443 83.0424 112.445 83.0579L112.454 83.1285L112.461 83.177C112.461 83.2035 112.465 83.2322 112.468 83.2586C112.468 83.2741 112.468 83.2873 112.468 83.305C112.468 83.3491 112.468 83.3932 112.468 83.4418C112.468 83.4682 112.468 83.4969 112.468 83.5256" fill="#503E8B"/>
<path d="M123.341 89.0194C123.341 91.8965 125.241 94.0212 127.826 94.0212C129.191 94.0212 130.131 93.4895 130.688 92.8099L130.79 93.8226H133.87V84.203H130.79L130.688 85.2157C130.131 84.545 129.191 84.0044 127.826 84.0044C125.241 84.0044 123.341 86.149 123.341 89.0238M128.583 86.8065C129.815 86.8175 130.674 87.7177 130.674 89.0216C130.674 90.3256 129.815 91.2368 128.583 91.2368C127.352 91.2368 126.492 90.3256 126.492 89.0216C126.492 87.7177 127.35 86.8065 128.583 86.8065ZM139.056 88.4811C139.056 87.4066 139.88 86.8947 140.682 86.8947C141.484 86.8947 142.319 87.4066 142.319 88.4811V93.8491H145.521V87.5787C145.521 85.2775 143.753 84 141.916 84C140.767 84 139.586 84.353 138.896 85.2157L138.794 84.2008H135.856V93.8469H139.059V88.4811H139.056ZM148.305 95.3097C147.942 95.3097 147.559 95.2193 147.176 95.0494L146.744 97.5425C147.418 97.8757 148.135 98.0478 148.832 98.0478C150.616 98.0478 152.168 97.1653 152.945 95.2413L157.432 84.1721H153.885L151.89 90.6257L149.841 84.1721H146.3L150.193 93.8337C149.91 94.8199 149.173 95.3119 148.307 95.3119M164.44 93.8491L165.926 88.9996L167.424 93.8491H171.143L174.005 84.1721H170.76L169.063 90.5418L167.184 84.364H164.688L162.797 90.544L161.109 84.1721H157.864L160.726 93.8491H164.445H164.44ZM178.481 89.207C178.481 87.4066 179.501 86.7535 180.703 86.7535C181.12 86.7535 181.532 86.8285 181.923 86.9653L182.117 84.2008C181.736 84.0728 181.338 84.0044 180.935 84C179.815 84 178.855 84.5648 178.401 85.518L178.298 84.2008H175.299V93.8491H178.481V89.2048V89.207Z" fill="#1E212C"/>
<path d="M83.7322 93.4034H78.9935V83.7771H83.4917C85.34 83.7771 86.2664 84.6221 86.2664 86.3166C86.2664 86.8351 86.1595 87.272 85.948 87.625C85.7386 87.978 85.4358 88.2516 85.0416 88.4391C86.1083 88.6995 86.6405 89.4364 86.6405 90.6521C86.6405 92.4833 85.6696 93.4012 83.73 93.4012M84.6898 85.123C84.4136 84.8538 83.9126 84.717 83.1889 84.717H80.2338V87.9912H83.416C84.5428 87.9912 85.1062 87.4617 85.1062 86.4071C85.1062 85.818 84.9659 85.3899 84.6898 85.123ZM84.9525 92.0421C85.2532 91.753 85.4046 91.2743 85.4046 90.608C85.4046 90.0299 85.2487 89.6041 84.9347 89.3305C84.6252 89.0569 84.0841 88.9179 83.3203 88.9179H80.2294V92.4767H83.5184C84.1731 92.4767 84.6497 92.3333 84.9525 92.0421Z" fill="#1E212C"/>
<path d="M90.4885 89.8159L87.019 83.7771H88.3017L91.1076 88.7701L93.9156 83.7771H95.1961L91.7266 89.8159V93.4034H90.4885V89.8159Z" fill="#1E212C"/>
<path d="M14.4813 37.3932H9.88501V7.93848H14.4813L33.4608 30.3858V7.93848H38.0593V37.3932H33.4185L14.4813 15.1621V37.3932Z" fill="#1E212C"/>
<path d="M59.4906 7.50378C68.5316 7.50378 75.23 13.9243 75.23 22.818C75.23 31.7118 68.5294 37.8256 59.4906 37.8256C50.4518 37.8256 43.9048 31.6456 43.9048 22.818C43.9048 13.9904 50.6054 7.50378 59.4906 7.50378ZM59.4906 33.51C66.0353 33.51 70.4133 29.1944 70.4133 22.7739C70.4133 16.3534 66.0353 11.8194 59.4906 11.8194C52.9458 11.8194 48.766 16.3733 48.766 22.7739C48.766 29.1745 53.1218 33.51 59.4906 33.51Z" fill="#1E212C"/>
<path d="M93.8578 28.3692H85.6718V37.3932H81.0756V7.93848H94.5392C100.122 7.93848 104.916 11.1708 104.916 18.22C104.916 22.9262 102.289 26.2247 98.6544 27.6345L106.798 37.3711H101.173L93.86 28.3714L93.8578 28.3692ZM85.6718 12.0798V24.2676H93.6841C97.2292 24.2676 100.12 21.9907 100.12 18.2598C100.12 14.1383 97.2292 12.0798 93.6841 12.0798H85.6718Z" fill="#1E212C"/>
<path d="M124.31 7.93848C133.964 7.93848 139.088 13.9022 139.088 22.6879C139.088 31.4736 133.966 37.3932 124.31 37.3932H111.722V7.93848H124.31ZM134.335 22.6857C134.335 16.113 131.291 12.0357 123.631 12.0357H116.318V33.2695H123.631C131.291 33.2695 134.335 29.3246 134.335 22.6857Z" fill="#1E212C"/>
<path d="M149.636 7.93848H145.04V37.391H149.636V7.93848Z" fill="#1E212C"/>
<path d="M182.079 35.873C180.458 36.59 177.724 37.8035 172.513 37.8035C162.398 37.8035 155.482 31.6434 155.482 22.6415C155.482 13.6396 162.354 7.50378 172.446 7.50378C176.43 7.50378 180.019 8.56504 181.707 9.36815L181.249 13.6617C179.65 12.9027 176.41 11.8393 172.446 11.8393C165.287 11.8393 160.428 16.2211 160.428 22.6415C160.428 29.062 165.549 33.5078 173.014 33.5078C176.539 33.5078 179.67 32.5326 181.42 31.5574L182.077 35.873H182.079Z" fill="#1E212C"/>
<path d="M12.0006 57.3077V62.7198H9.88281V45.464H17.5788C20.8479 45.464 23.6582 47.3438 23.6582 51.4233C23.6582 54.2452 22.017 56.189 19.7857 56.9524L24.5823 62.722H21.9279L17.541 57.3099H12.0006V57.3077ZM12.0006 55.4146H17.3361C19.5942 55.4146 21.4937 53.9143 21.4937 51.4388C21.4937 48.6941 19.5942 47.3835 17.3361 47.3835H12.0006V55.4146Z" fill="#1E212C"/>
<path d="M28.8467 62.7198V45.464H41.3372V47.3703H30.9623V52.8994H39.99V54.8035H30.9623V60.8268H41.6067V62.7198H28.8467Z" fill="#1E212C"/>
<path d="M46.1561 62.7198V45.464H48.285V60.8135H58.5063V62.7198H46.1561Z" fill="#1E212C"/>
<path d="M69.772 45.2102C75.0697 45.2102 78.9934 48.9698 78.9934 54.1812C78.9934 59.3926 75.0697 62.9867 69.772 62.9867C64.4743 62.9867 60.6396 59.3529 60.6396 54.1812C60.6396 49.0095 64.5634 45.2102 69.772 45.2102ZM69.772 61.0187C73.8895 61.0187 76.8133 58.2232 76.8133 54.168C76.8133 50.1127 73.9006 47.1783 69.772 47.1783C65.6434 47.1783 62.8331 50.1039 62.8331 54.168C62.8331 58.2321 65.7303 61.0187 69.772 61.0187Z" fill="#1E212C"/>
<path d="M92.6887 62.9735C86.8142 62.9735 82.8014 59.3507 82.8014 54.0775C82.8014 48.8044 86.7518 45.208 92.5484 45.208C94.793 45.208 96.7304 45.753 97.8327 46.2891L97.6145 48.2594C96.5367 47.763 94.6772 47.218 92.535 47.218C88.0724 47.218 85.0438 50.0002 85.0438 54.0775C85.0438 58.1548 88.2127 60.979 92.8289 60.979C95.5079 60.979 97.2782 60.1406 97.7926 59.8604L98.14 61.8549C97.6657 62.0557 95.804 62.9735 92.6887 62.9735Z" fill="#1E212C"/>
<path d="M117.99 62.7198H115.772L114.156 58.7175H104.959L103.342 62.7198H101.099L108.306 45.464H110.795L117.992 62.7198H117.99ZM105.624 56.926H113.461L109.548 47.6505L105.624 56.926Z" fill="#1E212C"/>
<path d="M125.762 47.421V62.722H123.658V47.421H117.823V45.464H131.585V47.421H125.762Z" fill="#1E212C"/>
<path d="M137.687 45.464H135.569V62.7198H137.687V45.464Z" fill="#1E212C"/>
<path d="M151.785 45.2102C157.081 45.2102 161.007 48.9698 161.007 54.1812C161.007 59.3926 157.081 62.9867 151.785 62.9867C146.49 62.9867 142.653 59.3529 142.653 54.1812C142.653 49.0095 146.576 45.2102 151.785 45.2102ZM151.785 61.0187C155.9 61.0187 158.824 58.2232 158.824 54.168C158.824 50.1127 155.914 47.1783 151.785 47.1783C147.656 47.1783 144.846 50.1039 144.846 54.168C144.846 58.2321 147.743 61.0187 151.785 61.0187Z" fill="#1E212C"/>
<path d="M182.117 62.7198H179.897L168.059 48.6279V62.7198H165.93V45.464H168.148L179.999 59.6067V45.464H182.117V62.7198Z" fill="#1E212C"/>
</svg>
